<svg width="20" height="20" viewBox="0 0 20 20" fill="none" xmlns="http://www.w3.org/2000/svg">
<path fill-rule="evenodd" clip-rule="evenodd" d="M15.8334 3.33337C17.2141 3.33337 18.3334 4.45266 18.3334 5.83337V14.1667C18.3334 15.5474 17.2141 16.6667 15.8334 16.6667H4.16669C2.78598 16.6667 1.66669 15.5474 1.66669 14.1667V5.83337C1.66669 4.45266 2.78598 3.33337 4.16669 3.33337H15.8334ZM16.6667 6.10671L10.5488 11.4605C10.2608 11.7125 9.84257 11.7335 9.53286 11.5235L9.45127 11.4605L3.33335 6.10754V14.1667C3.33335 14.6269 3.70645 15 4.16669 15H15.8334C16.2936 15 16.6667 14.6269 16.6667 14.1667V6.10671ZM15.4 5.00004H4.59835L10 9.72607L15.4 5.00004Z" fill="#0058FF"/>
</svg>
