<svg width="170" height="36" viewBox="0 0 170 36" fill="none" xmlns="http://www.w3.org/2000/svg">
<path d="M16.6979 23.4825C17.0273 22.3543 17.3547 21.2301 17.7233 19.9624C20.2721 19.9309 22.5543 20.9667 24.2542 23.2703C24.7267 23.909 25.1659 24.6009 25.7501 25.1217C26.2244 25.5389 26.7802 25.8525 27.382 26.0425C27.9838 26.2324 28.6186 26.2946 29.2457 26.2251C29.8729 26.1556 30.4787 25.9558 31.0246 25.6386C31.5704 25.3214 32.0444 24.8937 32.4163 24.3827C32.7883 23.8719 33.0516 23.2899 33.1899 22.6729C33.3282 22.0558 33.3385 21.4169 33.2203 20.7956C33.1021 20.1744 32.8579 19.5841 32.5027 19.0615C32.1475 18.5388 31.689 18.0948 31.1556 17.7571C30.8949 17.59 30.6223 17.4407 30.3537 17.2815L33.1163 15.0133C34.8369 16.1361 36.0486 17.8916 36.4905 19.9014C37.3532 23.5592 35.3808 27.4685 31.9987 28.8954C28.2147 30.4835 24.2248 29.3337 22.0837 26.0219C20.6329 23.7813 19.0957 23.0698 16.6979 23.4825Z" fill="#D5D7ED"/>
<path d="M24.1111 21.4797L21.0427 19.5319C21.8427 16.8942 23.5367 15.0624 26.1757 14.1092C26.7129 13.9126 27.2717 13.777 27.805 13.5667C30.3381 12.5741 31.4047 9.71633 30.1871 7.21428C29.0794 4.93433 26.1325 4.06953 23.8817 5.39229C23.372 5.69104 22.9014 6.06841 22.4367 6.39272C22.0211 5.31564 21.6041 4.23332 21.1858 3.14576C23.568 0.810773 28.2128 0.751808 31.0361 3.07696C33.4124 5.04244 34.4731 7.57593 33.9476 10.6381C33.4026 13.8104 31.5498 16.0216 28.4579 16.906C26.0423 17.6018 24.4209 18.846 24.1111 21.4797Z" fill="#3B46AC"/>
<path d="M12.3178 17.0024L15.943 16.7803C16.8351 19.3884 16.5312 21.8689 14.949 24.1881C14.6255 24.6618 14.2529 25.1021 13.9431 25.5836C12.4688 27.8773 13.2746 30.8196 15.7214 32.1345C17.9507 33.3315 20.8426 32.2996 21.8975 29.9116C22.1367 29.3672 22.2896 28.7893 22.4856 28.2508L25.3972 30.1494C24.8286 33.4416 21.0995 36.2149 17.4527 35.9869C14.3823 35.7903 12.0374 34.3555 10.6748 31.5626C9.26507 28.6733 9.47682 25.792 11.459 23.2644C13.0158 21.2792 13.604 19.3197 12.3178 17.0024Z" fill="#7590EC"/>
<path d="M24.5405 13.6316L21.7564 15.9725C19.4918 14.4001 18.2664 12.2381 18.1625 9.42349C18.1409 8.84957 18.1782 8.27369 18.1409 7.70173C17.9664 4.97955 15.5745 3.0927 12.8257 3.49562C10.3239 3.8612 8.61224 6.41631 9.18083 8.96553C9.31023 9.55517 9.5259 10.1055 9.69255 10.6499L6.2281 10.8583C4.73017 7.87273 6.08497 3.42093 9.15141 1.42401C11.7336 -0.250575 14.4726 -0.494294 17.2234 0.938537C20.0722 2.42247 21.6113 4.86949 21.5172 8.07714C21.4407 10.6106 22.1367 12.5348 24.5405 13.6316Z" fill="#6066BA"/>
<path d="M17.2842 10.9192L18.5547 14.2723C16.3764 15.9036 13.9687 16.4225 11.3003 15.6481C10.8729 15.5243 10.4611 15.3435 10.0376 15.2039C8.14367 14.5868 6.16342 15.1057 5.00273 16.568C3.75184 18.1404 3.58126 19.8837 4.45179 21.688C5.24585 23.3371 7.1261 24.2805 9.08478 24.084C9.30437 24.0623 9.522 24.0289 9.67297 24.0093C9.36515 25.1158 9.05537 26.2283 8.70441 27.494C6.92305 27.601 5.16422 27.0508 3.75968 25.9472C2.25351 24.8405 1.18814 23.2338 0.753319 21.4132C0.3185 19.5926 0.542478 17.6764 1.38535 16.0059C3.10091 12.4994 6.83789 10.8445 10.7003 11.8784C10.916 11.9354 11.1297 12.0041 11.3395 12.0749C14.0864 13.0026 15.0883 12.81 17.2842 10.9192Z" fill="#898CCD"/>
<path d="M41.3823 11.2651H44.2664V12.1142C44.6675 11.7154 45.1448 11.4019 45.6697 11.1925C46.1946 10.9831 46.7563 10.8821 47.3211 10.8956C48.7053 10.8956 49.9163 11.4257 50.9542 12.4857C51.4758 11.9651 52.0972 11.5559 52.7809 11.2826C53.4646 11.0093 54.1965 10.8777 54.9323 10.8956C55.8955 10.8823 56.8485 11.0957 57.7145 11.5187C58.5209 11.9064 59.1974 12.521 59.6614 13.2876C60.162 14.083 60.4116 15.2144 60.4103 16.682V23.0147H57.5282V16.8884C57.5328 16.4627 57.5086 16.0371 57.4557 15.6147C57.398 15.2433 57.3014 14.879 57.1674 14.5278C57.0325 14.1511 56.7666 13.8357 56.4185 13.6394C56.0053 13.4232 55.5432 13.3182 55.0774 13.3348C54.6172 13.3304 54.1625 13.4348 53.75 13.6394C53.3843 13.8114 53.0749 14.084 52.8579 14.4256C52.5299 14.9393 52.3665 15.8499 52.3678 17.1576V23.0147H49.4837V16.8884C49.4885 16.4672 49.4643 16.0463 49.4111 15.6285C49.3544 15.2509 49.253 14.8814 49.1092 14.5278C48.9657 14.1513 48.6951 13.8369 48.3446 13.6394C47.9321 13.423 47.4706 13.318 47.0054 13.3348C46.4914 13.3164 45.9809 13.4258 45.5193 13.6532C45.134 13.8569 44.8326 14.1902 44.6684 14.5947C44.5067 14.9714 44.3953 15.368 44.337 15.7739C44.2854 16.2307 44.2619 16.6901 44.2664 17.1498V23.0147H41.3823V11.2651Z" fill="#3C47AD"/>
<path d="M76.2092 17.419V18.162H66.5512C66.6958 18.9867 67.1305 19.7322 67.7766 20.2631C68.4522 20.7746 69.2833 21.0363 70.1293 21.0041C71.5671 21.0041 72.6435 20.5002 73.3585 19.4926C73.397 19.4151 73.4465 19.3436 73.5055 19.2803C73.5405 19.2166 73.5791 19.1549 73.6212 19.0956L76.1014 20.0508C74.6636 22.2783 72.6742 23.3921 70.1332 23.3921C68.2693 23.3921 66.7126 22.7953 65.463 21.6016C64.8551 21.036 64.3737 20.3477 64.0506 19.5821C63.7276 18.8164 63.5701 17.9907 63.5886 17.1596C63.5726 16.3315 63.7283 15.5091 64.0459 14.7444C64.3635 13.9798 64.836 13.2896 65.4336 12.7176C66.027 12.1245 66.734 11.6579 67.512 11.3458C68.29 11.0337 69.1229 10.8826 69.9607 10.9015C71.7906 10.9015 73.2892 11.5154 74.4564 12.7432C75.6237 13.9709 76.2079 15.5296 76.2092 17.419ZM66.5512 16.1199H73.3565C72.818 14.2094 71.6933 13.2542 69.9823 13.2542C69.1755 13.2287 68.3868 13.4976 67.7628 14.0109C67.1391 14.5616 66.7133 15.3026 66.5512 16.1199Z" fill="#3C47AD"/>
<path d="M79.3521 23.0147V11.2651H82.2362V12.2204C82.6344 11.8851 83.0813 11.6127 83.5615 11.4125C84.018 11.2664 84.4962 11.1999 84.9752 11.216C85.032 11.216 85.3869 11.2357 86.0417 11.2691V13.6276C85.6496 13.6119 85.3202 13.6021 85.032 13.6021C84.5888 13.5915 84.1478 13.6683 83.7341 13.8281C83.419 13.9447 83.1337 14.13 82.8988 14.3706C82.6875 14.6192 82.5389 14.9152 82.4655 15.2334C82.3725 15.5589 82.307 15.8915 82.2695 16.228C82.2407 16.5293 82.2263 16.9093 82.2263 17.3679V23.0147H79.3521Z" fill="#3C47AD"/>
<path d="M99.5329 13.2011L97.6311 14.8993C97.1488 14.3961 96.5952 13.967 95.988 13.6257C95.4643 13.3839 94.892 13.2662 94.3156 13.2817C93.1615 13.2817 92.2289 13.6355 91.5178 14.3431C90.8067 15.0506 90.4512 15.9757 90.4512 17.1183C90.4512 18.2675 90.8067 19.2004 91.5178 19.9171C92.2289 20.6339 93.1615 20.9916 94.3156 20.9903C94.9259 21.0056 95.531 20.8742 96.0802 20.607C96.6986 20.2551 97.2539 19.8021 97.7232 19.2666L99.625 20.9903C98.9174 21.7542 98.071 22.3759 97.1311 22.8221C96.2438 23.2028 95.2866 23.3923 94.3215 23.3783C92.3988 23.3783 90.7891 22.7769 89.4925 21.574C88.8786 21.0078 88.3887 20.3201 88.0535 19.5543C87.7183 18.7885 87.5453 17.9614 87.5453 17.1252C87.5453 16.289 87.7183 15.4618 88.0535 14.6961C88.3887 13.9303 88.8786 13.2426 89.4925 12.6763C90.7878 11.484 92.3877 10.8878 94.2921 10.8878C96.2292 10.893 97.9761 11.6641 99.5329 13.2011Z" fill="#3C47AD"/>
<path d="M102.186 23.0147V5.32547H105.072V12.1142C105.953 11.3097 107.109 10.8737 108.301 10.8956C109.231 10.888 110.149 11.1015 110.981 11.5187C111.755 11.8867 112.405 12.471 112.855 13.2011C113.378 13.9965 113.64 15.1548 113.64 16.6761V23.0147H110.758V16.8884C110.764 16.4406 110.735 15.9931 110.671 15.5499C110.608 15.1686 110.492 14.798 110.326 14.4492C110.155 14.0797 109.858 13.7835 109.489 13.6139C109.036 13.4134 108.543 13.318 108.048 13.3348C107.531 13.3305 107.019 13.4391 106.548 13.6532C106.137 13.8201 105.792 14.1186 105.568 14.5023C105.237 15.0159 105.072 15.8879 105.072 17.1183V23.0147H102.186Z" fill="#3C47AD"/>
<path d="M130.064 11.2651V23.0147H127.182V22.0064C125.875 22.9237 124.568 23.3823 123.261 23.3823C122.415 23.3941 121.575 23.2372 120.791 22.9207C120.006 22.6042 119.292 22.1344 118.69 21.5387C118.087 20.9761 117.606 20.2953 117.276 19.5384C116.947 18.7815 116.776 17.9648 116.775 17.139C116.774 16.3132 116.942 15.4959 117.269 14.738C117.596 13.9801 118.075 13.2977 118.677 12.7333C119.275 12.1374 119.986 11.6674 120.768 11.3511C121.55 11.0348 122.388 10.8786 123.231 10.8917C124.538 10.8917 125.855 11.3503 127.182 12.2675V11.2592L130.064 11.2651ZM123.549 13.2817C122.396 13.2817 121.464 13.6355 120.753 14.3431C120.042 15.0506 119.686 15.9679 119.686 17.0947C119.686 18.2439 120.037 19.1807 120.737 19.9053C121.438 20.63 122.359 20.9942 123.502 20.9982C124.002 21.0152 124.5 20.9274 124.964 20.7402C125.428 20.553 125.849 20.2707 126.198 19.9112C126.897 19.1853 127.247 18.257 127.248 17.1262C127.265 16.6216 127.182 16.1187 127.004 15.6465C126.826 15.1743 126.557 14.742 126.211 14.3745C125.87 14.0141 125.456 13.7304 124.997 13.542C124.538 13.3537 124.044 13.2649 123.549 13.2817Z" fill="#3C47AD"/>
<path d="M134.015 23.0147V11.2651H136.897V12.1142C137.788 11.3066 138.954 10.8707 140.155 10.8956C141.076 10.8902 141.985 11.1038 142.808 11.5187C143.582 11.8867 144.232 12.471 144.682 13.2011C145.205 13.9965 145.467 15.1548 145.467 16.6761V23.0147H142.577V16.8883C142.583 16.4406 142.554 15.9931 142.49 15.5499C142.428 15.1685 142.311 14.798 142.145 14.4492C141.974 14.0801 141.677 13.784 141.308 13.6139C140.855 13.4134 140.362 13.318 139.867 13.3348C139.35 13.3303 138.838 13.4389 138.367 13.6532C137.957 13.821 137.612 14.1193 137.387 14.5023C137.061 15.0159 136.898 15.8905 136.897 17.1262V23.0226L134.015 23.0147Z" fill="#3C47AD"/>
<path d="M152.496 11.2651H154.48V13.6532H152.492V19.3019C152.492 20.2572 152.77 20.7348 153.327 20.7348C153.786 20.7031 154.24 20.6227 154.682 20.495V22.9617C154.118 23.1197 153.537 23.2088 152.952 23.227C151.875 23.227 151.049 22.8863 150.472 22.2049C149.896 21.5236 149.608 20.5559 149.608 19.3019V13.6532H148.223V11.2651H149.608V8.66676L152.492 7.60541L152.496 11.2651Z" fill="#3C47AD"/>
<path d="M163.363 10.8956C165.11 10.8549 166.801 11.5077 168.069 12.7117C168.679 13.2777 169.166 13.9643 169.498 14.7281C169.83 15.4919 170.001 16.3165 170 17.1498C169.999 17.9832 169.825 18.8072 169.491 19.57C169.156 20.3328 168.667 21.0178 168.055 21.5819C166.757 22.7848 165.167 23.3862 163.283 23.3862C161.4 23.3862 159.809 22.7848 158.513 21.5819C157.898 21.0158 157.407 20.3277 157.072 19.5613C156.737 18.7948 156.565 17.9669 156.566 17.13C156.567 16.2932 156.742 15.4658 157.08 14.7004C157.417 13.935 157.91 13.2484 158.527 12.6842C159.828 11.4918 161.441 10.8956 163.363 10.8956ZM163.336 13.2817C162.181 13.2817 161.248 13.6355 160.538 14.3431C159.828 15.0506 159.473 15.9679 159.472 17.0947C159.472 18.2439 159.823 19.1808 160.524 19.9054C161.226 20.63 162.141 20.9923 163.269 20.9923C163.776 21.0114 164.281 20.926 164.753 20.7414C165.225 20.5568 165.654 20.2769 166.014 19.9191C166.727 19.2037 167.082 18.2707 167.081 17.1203C167.097 16.6146 167.012 16.1108 166.832 15.6383C166.651 15.1659 166.379 14.7342 166.03 14.3686C165.681 14.0095 165.261 13.7274 164.797 13.5403C164.333 13.3531 163.836 13.265 163.336 13.2817Z" fill="#3C47AD"/>
</svg>
